<?xml version="1.0" encoding="UTF-8"?> <svg xmlns="http://www.w3.org/2000/svg" width="250" height="150" viewBox="0 0 250 150" fill="none"><g clip-path="url(#clip0_14879_4071)"><path d="M161.098 86.1783C160.48 86.1783 159.862 86.2513 159.254 86.3882C158.636 86.5343 158.055 86.8173 157.557 87.2098C156.985 87.6754 156.515 88.2414 156.165 88.8804C155.713 89.7659 155.399 90.7062 155.243 91.6829C155.086 92.3585 155.012 93.0431 155.003 93.7369C155.003 94.2755 155.067 94.805 155.224 95.3162C155.372 95.7818 155.63 96.2108 155.971 96.5668C156.358 96.9411 156.838 97.215 157.354 97.3793C158.046 97.5984 158.765 97.6897 159.494 97.6714H161.255C161.725 97.6714 162.223 97.6714 162.721 97.5893L163.431 95.7635L162.509 95.8183H159.669C158.977 95.8822 158.286 95.6905 157.732 95.2797C157.327 94.8324 157.124 94.2481 157.17 93.6456V92.9975H160.038C160.738 92.9975 161.439 92.9427 162.131 92.8149C162.647 92.7236 163.145 92.541 163.606 92.2763C163.984 92.0481 164.298 91.7377 164.528 91.3634C164.768 90.9709 164.934 90.5327 165.036 90.0854C165.118 89.7476 165.165 89.4007 165.165 89.0538C165.192 88.2414 164.833 87.4563 164.196 86.9451C163.283 86.3517 162.186 86.0779 161.098 86.1783ZM162.878 89.985C162.822 90.2041 162.73 90.414 162.601 90.6057C162.481 90.7883 162.315 90.9252 162.112 91.0165C161.854 91.1352 161.578 91.1991 161.301 91.2265C160.923 91.2721 160.536 91.2904 160.157 91.2904H157.511C157.631 90.7518 157.806 90.2223 158.027 89.7111C158.193 89.3277 158.433 88.9808 158.728 88.6887C158.996 88.4422 159.309 88.2505 159.65 88.1318C160.065 88.0132 160.499 87.9584 160.932 87.9584C161.476 87.9127 162.029 88.0223 162.518 88.2779C162.822 88.4879 162.988 88.8256 162.979 89.1908C162.988 89.4555 162.952 89.7294 162.878 89.985ZM169.914 97.644H172.154L174.33 86.5434H172.09L169.914 97.644ZM174.792 83.0836C174.506 82.9284 174.192 82.8645 173.869 82.8919C173.445 82.8736 173.04 83.0014 172.698 83.2479C172.339 83.5857 172.154 84.0786 172.219 84.5716C172.219 85.2836 172.625 85.6397 173.436 85.6397C173.888 85.6762 174.34 85.5393 174.69 85.2471C174.985 84.8911 175.133 84.4347 175.087 83.9691C175.16 83.6405 175.05 83.3027 174.792 83.0836ZM168.097 83.3027L165.275 97.644H167.516L170.282 83.3027H168.097ZM149.461 86.1783C148.382 86.0961 147.312 86.4247 146.464 87.0911L147.211 83.3392H144.97L143.292 91.9112C143.218 92.2946 143.154 92.6597 143.117 93.0066C143.08 93.3352 143.052 93.6639 143.052 93.9925C142.942 95.1427 143.375 96.2747 144.214 97.0689C145.228 97.7536 146.455 98.0822 147.681 97.9818C149.12 98.0822 150.549 97.6167 151.646 96.6855C152.707 95.5262 153.38 94.0747 153.583 92.5228C153.666 92.1029 153.73 91.7194 153.767 91.3452C153.786 90.9983 153.786 90.6514 153.767 90.3045C153.896 89.136 153.491 87.9675 152.661 87.1277C151.739 86.4521 150.604 86.1144 149.461 86.1783ZM151.305 92.6506C151.185 93.244 151.01 93.8373 150.789 94.4033C150.632 94.805 150.392 95.161 150.097 95.4714C149.83 95.727 149.498 95.9096 149.129 96.0009C148.677 96.0921 148.225 96.1378 147.764 96.1287C147.11 96.1834 146.455 96.01 145.92 95.6266C145.459 95.1336 145.247 94.4672 145.33 93.8008C145.348 93.034 145.44 92.2763 145.616 91.5369C145.726 90.9435 145.883 90.3684 146.086 89.8024C146.234 89.4007 146.455 89.0356 146.741 88.7161C146.99 88.4513 147.312 88.2596 147.663 88.1501C148.069 88.0405 148.483 87.9858 148.898 87.9858H148.991C149.369 87.9858 149.738 88.0132 150.106 88.0953C150.411 88.1501 150.687 88.2779 150.936 88.4605C151.176 88.643 151.351 88.8987 151.453 89.1816C151.582 89.5559 151.637 89.9576 151.628 90.3501C151.6 91.1261 151.49 91.8929 151.305 92.6506ZM231.041 87.0911C230.054 86.4247 228.874 86.1052 227.684 86.1783C226.891 86.16 226.107 86.2696 225.351 86.4978C224.706 86.6895 224.116 87.0181 223.608 87.4563C223.101 87.9493 222.696 88.5335 222.419 89.1816C222.078 89.9941 221.829 90.834 221.672 91.6921C221.598 92.1029 221.543 92.4954 221.497 92.8514C221.451 93.1983 221.432 93.5361 221.432 93.883C221.303 95.0606 221.746 96.2291 222.622 97.0324C223.608 97.6988 224.789 98.0183 225.978 97.9453C226.762 97.9635 227.546 97.854 228.302 97.6258C228.948 97.4249 229.529 97.0781 230.017 96.6216C230.515 96.1469 230.912 95.5718 231.188 94.9419C231.529 94.1386 231.788 93.2987 231.944 92.4406C232.018 92.0116 232.074 91.6282 232.12 91.2721C232.157 90.9252 232.184 90.5875 232.184 90.2406C232.323 89.0721 231.898 87.9036 231.041 87.0911ZM229.916 91.2813C229.87 91.6555 229.796 92.0572 229.713 92.5228C229.593 93.107 229.436 93.6821 229.243 94.2481C229.104 94.6498 228.883 95.0241 228.597 95.3527C228.348 95.6266 228.025 95.8274 227.675 95.9461C227.223 96.0739 226.753 96.1287 226.283 96.1195C225.6 96.1743 224.927 96.0009 224.355 95.6357C223.876 95.1519 223.645 94.4763 223.738 93.8099C223.738 93.4813 223.765 93.1527 223.811 92.8332C223.867 92.4589 223.931 92.0481 224.023 91.5916C224.134 91.0074 224.291 90.4323 224.485 89.8754C224.623 89.4646 224.844 89.0904 225.13 88.7617C225.379 88.4879 225.702 88.2779 226.052 88.1592C226.504 88.0314 226.965 87.9675 227.435 87.9766C228.118 87.931 228.791 88.0953 229.363 88.4605C229.842 88.9443 230.073 89.6198 229.98 90.2862C229.971 90.624 229.934 90.9526 229.879 91.2813H229.916ZM219.376 83.3027L218.592 87.3559C218.297 86.9542 217.901 86.6347 217.44 86.443C216.776 86.2239 216.066 86.1326 215.365 86.1783C214.719 86.1783 214.083 86.2513 213.456 86.4065C212.866 86.5708 212.322 86.8629 211.851 87.2555C211.326 87.7119 210.892 88.2596 210.579 88.8804C210.173 89.702 209.887 90.5875 209.731 91.4912C209.592 92.1485 209.519 92.824 209.519 93.4996C209.5 94.2116 209.629 94.9145 209.897 95.5718C210.127 96.0921 210.487 96.5577 210.948 96.9046C211.427 97.2424 211.962 97.4797 212.534 97.6075C213.198 97.7536 213.871 97.8266 214.544 97.8266H215.531L216.776 97.7627C217.089 97.7262 217.393 97.6623 217.698 97.5801C217.928 97.5071 218.15 97.3976 218.343 97.2424C218.518 97.0963 218.657 96.9137 218.758 96.7038C218.878 96.4482 218.961 96.1743 219.016 95.9004L221.469 83.3483L219.376 83.3027ZM217.919 90.7427C217.919 90.9709 217.864 91.1535 217.836 91.3178L216.914 95.8822C216.6 95.937 216.204 95.9735 215.817 96.0009H214.775C214.369 96.0009 213.963 95.9735 213.557 95.9004C213.225 95.8274 212.912 95.6905 212.635 95.4988C212.386 95.2888 212.183 95.0241 212.054 94.7228C211.907 94.3212 211.833 93.883 211.851 93.4539C211.851 93.1527 211.87 92.8423 211.907 92.541C211.944 92.1759 211.999 91.8016 212.091 91.4456C212.202 90.8796 212.359 90.3136 212.571 89.775C212.727 89.3916 212.949 89.0356 213.235 88.7343C213.493 88.4787 213.806 88.2962 214.157 88.1957C214.544 88.0862 214.941 88.0405 215.346 88.0405H215.365C216.01 88.0132 216.647 88.1683 217.209 88.4879C217.753 88.8804 218.03 89.5377 217.947 90.1949C217.947 90.3775 217.928 90.5601 217.901 90.7427H217.919ZM206.097 89.0812C206.125 88.2688 205.765 87.4837 205.129 86.9725C204.207 86.3608 203.11 86.087 202.003 86.1783C201.385 86.1783 200.768 86.2422 200.159 86.3882C199.532 86.5434 198.951 86.8264 198.453 87.219C197.881 87.6754 197.42 88.2414 197.079 88.8804C196.627 89.7659 196.314 90.7062 196.157 91.6829C196.009 92.3585 195.926 93.0431 195.917 93.7369C195.917 94.2755 195.982 94.805 196.139 95.3162C196.286 95.7818 196.544 96.2108 196.895 96.5668C197.282 96.9411 197.761 97.215 198.278 97.3793C198.969 97.5984 199.689 97.6897 200.417 97.6714H202.178C202.658 97.6714 203.101 97.6714 203.635 97.5893L204.355 95.7635L203.433 95.8183H202.603C202.326 95.8183 202.022 95.8183 201.681 95.8183H200.565C199.873 95.8822 199.182 95.6905 198.628 95.2797C198.223 94.8324 198.02 94.239 198.066 93.6456C198.066 93.5361 198.066 93.4265 198.066 93.317C198.057 93.2074 198.057 93.107 198.066 92.9975H200.887C201.588 92.9975 202.289 92.9427 202.981 92.8149C203.506 92.7145 204.004 92.541 204.465 92.2763C204.843 92.0481 205.157 91.7377 205.387 91.3634C205.627 90.9709 205.793 90.5327 205.895 90.0854C205.996 89.7568 206.061 89.419 206.079 89.0812H206.097ZM203.792 89.9941C203.728 90.2132 203.635 90.4232 203.506 90.6149C203.386 90.7883 203.22 90.9344 203.027 91.0165C202.778 91.1352 202.501 91.1991 202.225 91.2265C201.846 91.2721 201.459 91.2904 201.081 91.2904H198.444C198.555 90.7518 198.73 90.2223 198.951 89.7111C199.117 89.3277 199.357 88.9808 199.661 88.6887C199.928 88.4422 200.242 88.2505 200.583 88.1318C200.97 88.0132 201.385 87.9584 201.791 87.9584H201.856C202.409 87.9127 202.962 88.0223 203.451 88.2779C203.746 88.4879 203.912 88.8348 203.903 89.1908C203.903 89.4646 203.857 89.7294 203.774 89.985H203.792V89.9941ZM207.139 95.0423C206.724 95.0241 206.31 95.1427 205.968 95.3892C205.609 95.727 205.424 96.2199 205.489 96.7129C205.489 97.4341 205.895 97.7901 206.706 97.7901C207.158 97.8266 207.61 97.6806 207.96 97.3884C208.255 97.0233 208.394 96.5668 208.357 96.1104C208.394 95.7909 208.264 95.4714 208.015 95.2614C207.757 95.1154 207.462 95.0332 207.158 95.0423H207.139ZM181.071 86.1783C180.453 86.1783 179.836 86.2422 179.227 86.3882C178.609 86.5343 178.028 86.8173 177.53 87.2098C176.958 87.6754 176.488 88.2414 176.138 88.8804C175.686 89.7659 175.372 90.7062 175.216 91.6829C175.059 92.3585 174.985 93.0431 174.976 93.7369C174.976 94.2755 175.04 94.805 175.197 95.3162C175.345 95.7818 175.603 96.2108 175.953 96.5668C176.341 96.9411 176.82 97.2241 177.337 97.3793C178.028 97.5984 178.747 97.6897 179.476 97.6714H181.237C181.717 97.6714 182.288 97.6714 182.786 97.5801H182.685L183.404 95.7544L182.482 95.8092H179.614C178.923 95.8731 178.24 95.6813 177.687 95.2706C177.281 94.8232 177.078 94.239 177.124 93.6365V92.9884H180.066C180.73 92.9884 181.394 92.9245 182.049 92.8058C182.565 92.7054 183.063 92.5228 183.524 92.2672C183.902 92.039 184.216 91.7286 184.446 91.3543C184.852 90.6514 185.073 89.8572 185.092 89.0447C185.119 88.2323 184.76 87.4472 184.123 86.936C183.22 86.3608 182.159 86.0961 181.09 86.1783H181.071ZM182.86 89.985C182.796 90.2041 182.703 90.414 182.574 90.6057C182.454 90.7883 182.288 90.9252 182.085 91.0074C181.827 91.1169 181.56 91.19 181.283 91.2174C180.868 91.263 180.444 91.2904 180.029 91.2813H177.503C177.622 90.7427 177.798 90.2132 178.019 89.702C178.185 89.3186 178.425 88.9717 178.72 88.6796C178.987 88.4331 179.301 88.2414 179.642 88.1318C180.038 88.0132 180.444 87.9584 180.85 87.9584H180.924C181.468 87.9127 182.021 88.0223 182.51 88.2779C182.805 88.4879 182.98 88.8256 182.971 89.1908C182.971 89.4555 182.952 89.7294 182.879 89.985H182.86ZM194.497 86.5434L189.758 95.3527L188.43 86.5434H186.124L188.208 97.6623H190.56L196.793 86.5434H194.497Z" fill="#1F2A44"></path><path d="M194.267 52.5112C193.677 52.1734 192.994 52 192.312 52H191.989C191.491 52 191.002 52.0548 190.523 52.1734C190.09 52.283 189.684 52.4747 189.324 52.7486C188.983 53.0316 188.725 53.3876 188.568 53.7984C188.384 54.3005 188.291 54.8299 188.291 55.3594V55.5055C188.291 56.9843 189.214 57.7238 191.224 57.7329H191.463C192.386 57.7329 193.28 57.459 194.045 56.9478C194.783 56.2358 195.152 55.2225 195.041 54.2092C195.041 54.1453 195.041 54.0905 195.041 54.0266C195.041 53.4332 194.755 52.8672 194.267 52.5112ZM177.161 71.6634L178.508 64.4517H183.552L185.331 59.7777H179.402L180.444 54.3826L175.834 54.9212C175.013 55.0216 174.331 55.615 174.137 56.4183V56.5096L171.26 71.49C171.195 71.9099 171.122 72.3207 171.075 72.7224C171.029 73.0875 171.011 73.4618 171.011 73.8361V74.1738C171.011 75.5706 171.546 76.9125 172.523 77.9258C173.519 78.9026 175.124 79.2951 177.318 79.3773C178.314 79.4412 179.319 79.4412 180.315 79.3773C181.08 79.3042 181.541 78.7656 181.855 77.9258L183.091 74.6759H179.015C178.48 74.6759 177.954 74.5116 177.512 74.2104C177.208 73.8909 177.032 73.4618 177.032 73.0145V72.8958C177.032 72.4759 177.078 72.0651 177.161 71.6543V71.6634ZM184.216 79.4046H188.43C189.398 79.3955 190.219 78.7017 190.394 77.7615L193.852 59.8416L187.978 59.7869L184.216 79.4046ZM237.938 56.0349H237.846C236.076 56.0075 234.628 57.4042 234.6 59.157C234.573 60.9097 235.983 62.3429 237.754 62.3703C239.524 62.3977 240.972 61.001 241 59.2483C241 59.2209 241 59.1844 241 59.157C241.027 57.4499 239.653 56.0532 237.929 56.0258C237.929 56.0258 237.929 56.0258 237.92 56.0258H237.938V56.0349ZM237.938 61.6126H237.846C236.537 61.5487 235.513 60.4533 235.568 59.1478C235.485 57.8607 236.472 56.7561 237.772 56.6831C239.072 56.6009 240.188 57.5777 240.262 58.8649C240.262 58.9653 240.262 59.0566 240.262 59.157V59.2574C240.28 60.5354 239.248 61.5944 237.957 61.6126C237.938 61.6126 237.911 61.6126 237.892 61.6126H237.938ZM239.119 59.9603C239.091 59.6225 238.879 59.3213 238.565 59.1844C238.916 59.1113 239.174 58.8192 239.192 58.4632C239.192 58.2167 239.091 57.9794 238.897 57.815C238.611 57.6599 238.298 57.5777 237.975 57.5868H237.726C237.367 57.5868 237.007 57.6233 236.657 57.6872V60.8002H237.367V59.4947H237.699C238.095 59.4947 238.279 59.6591 238.335 59.9877C238.372 60.2616 238.455 60.5172 238.575 60.7636H239.34C239.22 60.5263 239.146 60.2616 239.119 59.9968V59.9603ZM237.717 59.0474H237.385V58.1346C237.514 58.1163 237.643 58.1163 237.772 58.1346C238.224 58.1346 238.427 58.2806 238.427 58.6001C238.427 58.9196 238.113 59.0109 237.726 59.0109V59.0474H237.717ZM209.224 59.8051L202.824 73.5348L201.607 59.7686H195.484L198.379 79.3955H203.912C204.622 79.3955 205.277 79.0121 205.627 78.4005L215.273 59.7777L209.224 59.8051ZM230.368 60.5993C229.141 59.6499 227.269 59.1752 224.752 59.1752C223.562 59.1752 222.382 59.3122 221.229 59.5769C220.086 59.8416 219.026 60.3528 218.104 61.074C217.089 61.9047 216.25 62.9272 215.632 64.0774V64.123C214.821 65.6841 214.277 67.3638 214.009 69.0982V69.1987C213.788 70.2758 213.677 71.3622 213.668 72.4576V72.5489C213.668 73.4801 213.797 74.4021 214.065 75.2876C214.304 76.1183 214.747 76.876 215.356 77.5059C216.029 78.1723 216.859 78.6652 217.762 78.9573C219.007 79.3225 220.307 79.4959 221.608 79.4777C223.175 79.5872 224.752 79.5507 226.32 79.3773C226.43 79.359 226.541 79.3316 226.642 79.2951H226.854C227.057 79.1947 227.242 79.0669 227.398 78.9117L227.472 78.8204L227.611 78.647L227.694 78.5374C227.786 78.4005 227.869 78.2544 227.933 78.0992C228.238 77.442 229.132 75.0502 229.132 75.0502C228.016 75.1232 227.288 75.178 226.273 75.2054C225.259 75.2328 224.079 75.2054 222.723 75.2054H222.318C221.497 75.2054 220.695 74.9772 219.994 74.5481C219.459 74.0643 219.155 73.3796 219.155 72.6585V71.919H223.046C225.167 72.0286 227.279 71.6178 229.197 70.7232C230.672 69.8651 231.686 68.4136 231.963 66.743C232.028 66.387 232.092 66.0492 232.129 65.7115C232.166 65.3737 232.193 65.045 232.221 64.7164V64.4243C232.221 62.9363 231.539 61.5305 230.368 60.5993ZM226.679 66.0766C226.596 66.3505 226.467 66.6152 226.31 66.8526C226.154 67.0716 225.942 67.2451 225.693 67.3638C225.379 67.5098 225.038 67.6011 224.687 67.6376C224.236 67.6833 223.775 67.7107 223.313 67.7107H219.92C220.123 66.46 220.658 65.2915 221.469 64.3147C222.17 63.6849 223.083 63.3471 224.033 63.3471H224.319C225.001 63.2832 225.693 63.4384 226.283 63.7944C226.652 64.1048 226.854 64.5612 226.836 65.0359C226.845 65.3828 226.799 65.7297 226.698 66.0583L226.679 66.0766ZM136.468 59.796C135.98 59.796 135.371 59.723 134.753 59.7047H132.374C131.231 59.7047 130.087 59.8234 128.962 60.0516C127.957 60.2616 127.017 60.6906 126.196 61.3022C125.32 61.9504 124.601 62.772 124.075 63.7214C123.448 64.9903 123.015 66.3413 122.775 67.7289V67.8202L120.553 79.3316H124.794C125.726 79.3316 126.537 78.6926 126.74 77.7888L128.584 68.2401C128.695 67.6194 128.87 67.0077 129.082 66.4144C129.239 65.9853 129.488 65.6019 129.811 65.2824C130.124 64.9811 130.511 64.7712 130.936 64.6799C131.443 64.5704 131.959 64.5156 132.485 64.5156H133.591L134.624 64.5704L136.468 59.796ZM85.7241 60.7089C84.3502 59.6773 82.3399 59.157 79.7027 59.157H79.4629C78.1904 59.157 76.9271 59.2939 75.6822 59.5769C74.6218 59.8325 73.6259 60.3072 72.7776 60.9827C71.9569 61.6583 71.3022 62.489 70.8411 63.4384C70.2879 64.5977 69.9006 65.8301 69.6885 67.0899V67.1721L67.3186 79.4046H71.5143C72.4364 79.3864 73.2386 78.7474 73.4415 77.8527L75.4425 67.4642C75.5347 66.8891 75.6915 66.3322 75.9036 65.7936C76.0603 65.4011 76.3001 65.045 76.6044 64.7438C76.8994 64.4791 77.2498 64.2874 77.6371 64.1869C78.1166 64.0683 78.6054 64.0135 79.1033 64.0135H79.4721C80.0807 64.0135 80.6709 64.1869 81.1689 64.5247C81.6391 64.9446 81.8789 65.5654 81.8143 66.1861V66.7704C81.7959 67.0077 81.759 67.2451 81.7037 67.4733L79.3984 79.3955H83.6494C84.5069 79.359 85.2446 78.793 85.4936 77.9806V77.8984C85.4936 77.8162 85.4936 77.7249 85.5397 77.6519L87.3839 67.738C87.4485 67.309 87.513 66.9165 87.5591 66.5422C87.6145 66.177 87.6329 65.8119 87.6329 65.4467C87.8081 63.6575 87.0981 61.8865 85.7241 60.7089ZM62.9478 55.5055C62.9478 56.9843 63.8699 57.7238 65.8893 57.7329H66.1291C67.0604 57.742 67.9733 57.4681 68.7479 56.9569C69.4856 56.2449 69.8545 55.2316 69.7438 54.2183C69.7438 54.1544 69.7438 54.0996 69.7438 54.0357C69.7438 53.4332 69.4579 52.8672 68.9692 52.5112C68.3698 52.1734 67.6967 52 67.0143 52H66.7008C66.2029 52 65.7049 52.0548 65.2254 52.1734C64.7736 52.283 64.3586 52.4838 63.9898 52.7668C63.6486 53.0407 63.3812 53.3967 63.2152 53.8075C63.0308 54.3096 62.9386 54.8391 62.9386 55.3777V55.5055H62.9478ZM22.725 52.0274C20.7793 52.0274 20.06 52.5386 18.7322 54.8208C18.7322 54.8208 11.18 67.9024 10.8849 68.4501C9.96283 70.1663 9.54788 71.4535 10.7282 73.6079C11.7241 75.4062 13.7066 78.3274 13.7066 78.3274L28.8847 52.0274H22.725ZM50.49 67.7198C49.6877 66.2957 43.113 55.0947 42.8917 54.7113C41.5823 52.5295 40.8723 52.0274 38.9542 52.0274H34.482C32.5271 52.0274 31.8078 52.5386 30.48 54.8208C30.48 54.8208 16.307 79.3316 16.3162 79.3316H22.7065C24.5508 79.3316 25.2516 78.7656 26.5517 76.5382L36.6951 58.9014L41.3979 67.1903H37.7094C35.7453 67.1903 35.026 67.7654 33.7351 69.9837C33.0342 71.1796 30.9687 74.7398 30.9687 74.8129H41.6653L39.0649 79.3773H45.4275C47.2718 79.3773 47.9726 78.8113 49.282 76.593L50.8127 74.0917C51.3936 73.261 51.7348 72.2842 51.7809 71.28C51.6518 70.0111 51.2092 68.797 50.4807 67.7472V67.7198H50.49ZM62.6435 59.7686L58.8905 79.3864H63.123C64.082 79.3681 64.8935 78.6743 65.0594 77.7432L68.4897 59.7777H62.6435V59.7686ZM102.931 75.2876C102.931 75.2876 102.931 75.251 102.931 75.2328V75.2876ZM151.093 61.1836C149.747 60.2159 147.7 59.7412 144.933 59.7412H141.512C140.461 59.7412 139.576 59.7412 138.857 59.8051L137.197 64.4152C138.331 64.3695 139.677 64.3421 141.033 64.3421H144.629C145.385 64.3421 146.141 64.4973 146.842 64.7894C147.432 65.109 147.774 65.7571 147.7 66.4235C147.7 66.7339 147.654 67.0351 147.58 67.3364L147.432 68.1123C146.861 67.6376 146.16 67.3181 145.422 67.1994C144.509 67.0169 143.587 66.9256 142.656 66.9256H142.517C140.046 66.9256 138.183 67.4003 136.929 68.3679C135.685 69.363 134.818 70.7597 134.486 72.3116C134.394 72.6859 134.338 73.0601 134.311 73.4435V74.9041C134.292 76.3465 134.984 77.7067 136.155 78.5557C137.39 79.3955 139.281 79.8063 141.826 79.8063C142.794 79.8063 143.762 79.8063 144.74 79.7333L147.165 79.5872C147.746 79.5233 148.318 79.4138 148.88 79.2495C149.332 79.1125 149.756 78.8843 150.125 78.5831C150.485 78.2727 150.78 77.8893 150.973 77.4602C151.231 76.9034 151.416 76.31 151.527 75.7075V75.5888L152.9 68.2858C152.974 67.8293 153.039 67.3729 153.094 66.9712C153.14 66.5696 153.168 66.1679 153.168 65.7662C153.131 63.6392 152.439 62.0964 151.093 61.1379V61.1836ZM146.04 75.3971C145.616 75.4427 145.118 75.4884 144.601 75.5249C144.085 75.5614 143.523 75.5797 142.96 75.5797C142.139 75.6253 141.309 75.5158 140.526 75.251C140.046 75.0137 139.751 74.5299 139.742 74.0004C139.742 73.9365 139.742 73.8817 139.742 73.8178V73.3979C139.742 73.2245 139.77 73.051 139.816 72.8776C139.88 72.202 140.249 71.5995 140.821 71.2344C141.485 70.9423 142.195 70.7962 142.923 70.7962H143.486C144.196 70.7962 144.896 70.9149 145.56 71.1613C146.178 71.4626 146.519 72.1199 146.427 72.7954C146.446 72.9141 146.04 75.3515 146.04 75.3515V75.3971ZM101.603 64.406L103.383 59.7321H97.4443L98.5231 54.3278L93.9125 54.8664C93.0734 54.9851 92.4095 55.6059 92.2251 56.4183V56.4731L89.3573 71.4809C89.2743 71.8551 89.219 72.2294 89.1821 72.6128V72.7132C89.136 73.0875 89.1083 73.4618 89.0991 73.8361V74.1282C89.0991 75.5432 89.6523 76.9034 90.6482 77.9258C91.6533 78.9117 93.2394 79.2951 95.4525 79.3773C95.8951 79.3773 96.3746 79.4229 96.9463 79.4229C97.518 79.4229 97.9514 79.4229 98.4494 79.3681C99.2147 79.3042 99.6758 78.7656 99.9801 77.9258L101.188 74.6759H97.1307C96.5867 74.6759 96.0611 74.5116 95.6185 74.2012C95.2957 73.8726 95.1205 73.4435 95.1205 72.9871V72.8502C95.1205 72.412 95.1758 71.9738 95.2773 71.5448L96.6051 64.3695L101.603 64.406ZM160.738 69.08C160.868 68.2584 161.098 67.4551 161.412 66.6882C161.633 66.1405 161.965 65.6567 162.398 65.255C162.822 64.899 163.339 64.6525 163.883 64.543C164.519 64.4152 165.174 64.3513 165.829 64.3513H167.802L169.425 64.406L171.158 59.7321H169.895L168.595 59.6864H166.207C164.86 59.6864 163.514 59.8142 162.195 60.0699C160.987 60.2981 159.844 60.7728 158.83 61.4574C157.797 62.1969 156.949 63.1554 156.349 64.2691C155.593 65.7297 155.077 67.2999 154.818 68.9157V69.0069C154.606 70.1298 154.496 71.2709 154.487 72.4211V72.5398C154.487 73.5074 154.643 74.4751 154.957 75.3971V75.3332C155.215 76.1913 155.695 76.9673 156.349 77.588C157.105 78.2453 158.009 78.72 158.986 78.9847H159.033C160.388 79.3407 161.78 79.5051 163.182 79.4777C164.03 79.5233 164.879 79.5233 165.727 79.4777H165.782C165.921 79.4777 166.068 79.4594 166.207 79.4229C166.658 79.3773 167.055 79.1308 167.304 78.7565C167.498 78.5283 167.636 78.2635 167.71 77.9806L168.936 74.749C167.876 74.8037 166.972 74.822 166.244 74.822H163.68C162.813 74.822 161.965 74.6212 161.2 74.2286C160.508 73.6535 160.158 72.7771 160.277 71.8916C160.277 71.4809 160.314 71.0701 160.379 70.6684C160.471 70.148 160.591 69.6277 160.738 69.1165V69.08ZM120.838 66.6791C120.912 66.3231 120.977 65.9853 121.014 65.6475C121.014 65.3098 121.078 64.9811 121.106 64.6525V64.3513C121.106 62.8815 120.423 61.4848 119.262 60.5628C118.035 59.6134 116.163 59.1387 113.655 59.1387C112.466 59.1387 111.285 59.2757 110.123 59.5404C108.98 59.796 107.91 60.3072 106.997 61.0375C105.983 61.8591 105.135 62.8815 104.526 64.0318V64.0774C103.705 65.6475 103.143 67.3455 102.866 69.0891V69.1987C102.645 70.2758 102.534 71.3622 102.525 72.4576V72.5489C102.525 73.4801 102.663 74.4021 102.931 75.2876C103.171 76.1274 103.613 76.8851 104.222 77.515C104.895 78.1814 105.725 78.6835 106.629 78.9665H106.675C107.92 79.3316 109.22 79.5051 110.52 79.4868C112.087 79.5964 113.664 79.5598 115.223 79.3864C115.324 79.3773 115.416 79.3499 115.509 79.3134H115.748C115.96 79.2221 116.154 79.0943 116.311 78.9299L116.385 78.866L116.523 78.6835L116.606 78.5648C116.698 78.4279 116.781 78.2818 116.846 78.1266C117.141 77.4785 118.035 75.0867 118.035 75.0867C116.929 75.1598 116.191 75.2145 115.186 75.2328C114.181 75.251 112.991 75.2328 111.626 75.2328H111.221C110.4 75.2328 109.589 75.0046 108.897 74.5755C108.362 74.0917 108.058 73.407 108.058 72.695V71.9555H111.958C114.07 72.0742 116.182 71.6726 118.109 70.7962C119.575 69.9472 120.589 68.4957 120.875 66.8343L120.838 66.6791ZM115.61 66.0218C115.527 66.2957 115.407 66.5513 115.25 66.7886C115.094 67.0077 114.872 67.1903 114.623 67.309C114.31 67.4551 113.969 67.5463 113.618 67.5829C113.111 67.6376 112.595 67.665 112.078 67.6559H108.86C109.072 66.4144 109.598 65.2368 110.4 64.26C111.101 63.6301 112.014 63.2923 112.964 63.2923H113.554C114.144 63.2923 114.716 63.4566 115.213 63.767C115.592 64.0683 115.794 64.5247 115.767 64.9994C115.776 65.3463 115.73 65.6932 115.628 66.0218H115.61Z" fill="#DA291C"></path></g><defs><clipPath id="clip0_14879_4071"><rect width="231" height="46" fill="white" transform="translate(10 52)"></rect></clipPath></defs></svg> 